<?xml version="1.0" encoding="UTF-8"?>
<svg xmlns="http://www.w3.org/2000/svg" xmlns:xlink="http://www.w3.org/1999/xlink" width="810pt" height="809.999993pt" viewBox="0 0 810 809.999993" version="1.2">
<g id="surface1">
<rect x="0" y="0" width="810" height="809.999993" style="fill:rgb(100%,100%,100%);fill-opacity:1;stroke:none;"/>
<rect x="0" y="0" width="810" height="809.999993" style="fill:rgb(100%,100%,100%);fill-opacity:1;stroke:none;"/>
<rect x="0" y="0" width="810" height="809.999993" style="fill:rgb(100%,100%,100%);fill-opacity:1;stroke:none;"/>
<path style=" stroke:none;fill-rule:nonzero;fill:rgb(0%,0%,0%);fill-opacity:1;" d="M 405 756 C 412.433594 756 418.5 749.933594 418.5 742.5 C 418.5 735.0625 412.433594 729 405 729 C 267.203125 729 183.671875 686.496094 137.847656 650.847656 C 131.992188 646.257812 123.503906 647.3125 118.914062 653.21875 C 114.328125 659.074219 115.382812 667.5625 121.289062 672.152344 C 170.4375 710.382812 259.558594 756 405 756 "/>
<path style=" stroke:none;fill-rule:nonzero;fill:rgb(0%,0%,0%);fill-opacity:1;" d="M 223.75 478.722656 C 252.175781 458.738281 291.671875 454.199219 317.25 467.699219 L 398.25 514.316406 C 402.785156 516.953125 408.375 516.691406 412.699219 513.738281 L 479.460938 467.59375 C 508.9375 449.824219 548.277344 462.585938 573.167969 478.984375 L 750.777344 594 L 56.792969 594 Z M 94.5 324 L 229.5 324 L 229.5 444.867188 C 222.167969 448.136719 214.945312 451.878906 208.300781 456.574219 L 94.5 535.148438 Z M 121.5 270 L 202.5 270 L 202.5 297 L 121.5 297 Z M 121.5 104.257812 L 189.84375 143.332031 L 200.917969 243 L 121.5 243 Z M 405 783 C 166.113281 783 67.027344 667.722656 36.652344 621 L 773.03125 621 C 742.023438 667.511719 641.195312 783 405 783 Z M 0.105469 608.027344 C 0.160156 608.976562 0.265625 609.925781 0.527344 610.820312 C 0.582031 611.085938 1.054688 612.71875 1.214844 613.035156 C 4.800781 621.105469 93.445312 810 405 810 C 716.554688 810 805.199219 621.105469 808.785156 613.035156 C 808.945312 612.71875 809.472656 610.925781 809.523438 610.714844 C 809.789062 609.714844 809.894531 608.710938 809.894531 607.710938 C 809.894531 607.394531 809.945312 607.078125 809.945312 606.761719 C 809.894531 605.496094 809.628906 604.230469 809.207031 603.015625 C 809.101562 602.699219 808.257812 600.800781 807.835938 600.167969 C 807.679688 599.957031 807.46875 599.800781 807.308594 599.589844 C 807.097656 599.21875 806.78125 598.902344 806.519531 598.585938 C 805.886719 597.847656 805.148438 597.214844 804.410156 596.6875 C 804.199219 596.53125 804.039062 596.320312 803.828125 596.160156 L 587.933594 456.417969 C 555.082031 434.742188 505.722656 420.238281 464.800781 444.917969 L 404.367188 486.683594 L 330.328125 444.074219 C 309.128906 432.894531 282.390625 430.523438 256.5 435.957031 L 256.5 310.5 C 256.5 303.066406 250.433594 297 243 297 L 229.5 297 L 229.5 256.5 C 229.5 256.238281 229.445312 255.234375 229.394531 255.023438 L 215.894531 133.523438 C 215.417969 129.199219 212.941406 125.402344 209.195312 123.292969 L 114.695312 69.292969 C 110.53125 66.921875 105.414062 66.921875 101.25 69.347656 C 97.082031 71.71875 94.5 76.203125 94.5 81 L 94.5 297 L 81 297 C 73.566406 297 67.5 303.066406 67.5 310.5 L 67.5 553.5 C 67.5 553.605469 67.550781 553.65625 67.550781 553.761719 L 5.800781 596.371094 C 5.644531 596.53125 5.484375 596.742188 5.324219 596.898438 C 4.589844 597.480469 3.902344 598.113281 3.324219 598.796875 C 3.058594 599.113281 2.269531 600.011719 2.164062 600.167969 C 1.636719 601.011719 1.265625 601.855469 0.898438 602.804688 C 0.84375 602.910156 0.792969 603.015625 0.738281 603.121094 C 0.316406 604.386719 0.105469 605.652344 0.0546875 606.917969 C 0.0546875 607.289062 0.105469 607.65625 0.105469 608.027344 "/>
<path style=" stroke:none;fill-rule:nonzero;fill:rgb(0%,0%,0%);fill-opacity:1;" d="M 459 756 L 486 756 C 493.433594 756 499.5 749.933594 499.5 742.5 C 499.5 735.0625 493.433594 729 486 729 L 459 729 C 451.5625 729 445.5 735.0625 445.5 742.5 C 445.5 749.933594 451.5625 756 459 756 "/>
<path style=" stroke:none;fill-rule:nonzero;fill:rgb(0%,0%,0%);fill-opacity:1;" d="M 594 189 C 689.449219 189 756 224.597656 756 256.5 C 756 288.40625 689.449219 324 594 324 C 498.550781 324 432 288.40625 432 256.5 C 432 224.597656 498.550781 189 594 189 Z M 432 94.5 C 432 62.597656 498.550781 27 594 27 C 617.308594 27 638.929688 29.164062 658.230469 32.800781 L 626.378906 56.691406 C 620.417969 61.171875 619.207031 69.609375 623.6875 75.621094 C 626.378906 79.15625 630.386719 81 634.5 81 C 637.347656 81 640.140625 80.105469 642.621094 78.3125 L 691.714844 41.449219 C 699.308594 43.980469 706.324219 46.777344 712.703125 49.730469 L 653.0625 97.453125 C 647.261719 102.09375 646.3125 110.636719 650.953125 116.4375 C 653.640625 119.761719 657.542969 121.5 661.5 121.5 C 664.453125 121.5 667.457031 120.550781 669.9375 118.546875 L 737.4375 64.546875 C 749.40625 74.09375 756 84.480469 756 94.5 C 756 126.40625 689.449219 162 594 162 C 498.550781 162 432 126.40625 432 94.5 Z M 594 378 C 498.550781 378 432 342.402344 432 310.5 L 432 305.648438 C 464.746094 333.019531 524.335938 351 594 351 C 663.660156 351 723.25 333.019531 756 305.648438 L 756 310.5 C 756 342.402344 689.449219 378 594 378 Z M 594 405 C 699.996094 405 783 363.496094 783 310.5 L 783 256.5 C 783 221.644531 746.980469 191.902344 692.296875 175.5 C 746.980469 159.101562 783 129.359375 783 94.5 C 783 41.503906 699.996094 0 594 0 C 488.003906 0 405 41.503906 405 94.5 C 405 129.359375 441.015625 159.101562 495.703125 175.5 C 441.015625 191.902344 405 221.644531 405 256.5 L 405 310.5 C 405 363.496094 488.003906 405 594 405 "/>
<path style=" stroke:none;fill-rule:nonzero;fill:rgb(0%,0%,0%);fill-opacity:1;" d="M 594 229.5 C 655.382812 229.5 688.5 248.644531 688.5 256.5 C 688.5 264.359375 655.382812 283.5 594 283.5 C 532.617188 283.5 499.5 264.359375 499.5 256.5 C 499.5 248.644531 532.617188 229.5 594 229.5 Z M 594 310.5 C 654.378906 310.5 715.5 291.9375 715.5 256.5 C 715.5 221.0625 654.378906 202.5 594 202.5 C 533.617188 202.5 472.5 221.0625 472.5 256.5 C 472.5 291.9375 533.617188 310.5 594 310.5 "/>
<path style=" stroke:none;fill-rule:nonzero;fill:rgb(0%,0%,0%);fill-opacity:1;" d="M 310.5 134.949219 C 314.347656 140.0625 318.9375 144.652344 324.050781 148.5 C 318.9375 152.351562 314.347656 156.9375 310.5 162.054688 C 306.648438 156.9375 302.0625 152.351562 296.945312 148.5 C 302.0625 144.652344 306.648438 140.0625 310.5 134.949219 Z M 256.5 162 C 278.859375 162 297 180.140625 297 202.5 C 297 209.9375 303.0625 216 310.5 216 C 317.933594 216 324 209.9375 324 202.5 C 324 180.140625 342.140625 162 364.5 162 C 371.933594 162 378 155.9375 378 148.5 C 378 141.066406 371.933594 135 364.5 135 C 342.140625 135 324 116.859375 324 94.5 C 324 87.066406 317.933594 81 310.5 81 C 303.0625 81 297 87.066406 297 94.5 C 297 116.859375 278.859375 135 256.5 135 C 249.0625 135 243 141.066406 243 148.5 C 243 155.9375 249.0625 162 256.5 162 "/>
</g>
</svg>
