<?xml version="1.0" encoding="UTF-8"?>
<svg xmlns="http://www.w3.org/2000/svg" xmlns:xlink="http://www.w3.org/1999/xlink" width="810pt" height="809.999993pt" viewBox="0 0 810 809.999993" version="1.2">
<defs>
<clipPath id="clip1">
  <path d="M 24 52.648438 L 808 52.648438 L 808 757.648438 L 24 757.648438 Z M 24 52.648438 "/>
</clipPath>
</defs>
<g id="surface1">
<rect x="0" y="0" width="810" height="809.999993" style="fill:rgb(100%,100%,100%);fill-opacity:1;stroke:none;"/>
<rect x="0" y="0" width="810" height="809.999993" style="fill:rgb(100%,100%,100%);fill-opacity:1;stroke:none;"/>
<rect x="0" y="0" width="810" height="809.999993" style="fill:rgb(100%,100%,100%);fill-opacity:1;stroke:none;"/>
<g clip-path="url(#clip1)" clip-rule="nonzero">
<path style=" stroke:none;fill-rule:nonzero;fill:rgb(1.568604%,2.349854%,2.349854%);fill-opacity:1;" d="M 753.199219 354.589844 C 753.148438 354.589844 753.148438 354.691406 753.097656 354.742188 C 745.195312 360.097656 736.476562 363.617188 727.148438 365.199219 C 720.011719 366.425781 715.222656 373.109375 716.445312 380.25 C 717.464844 386.628906 723.019531 391.167969 729.289062 391.167969 C 730.003906 391.167969 730.71875 391.117188 731.429688 390.964844 C 740.554688 389.433594 749.222656 386.476562 757.378906 382.34375 C 759.824219 386.375 762.273438 390.8125 762.984375 392.191406 C 765.738281 398.566406 767.472656 405.25 768.082031 412.035156 C 768.082031 412.089844 768.082031 412.140625 768.132812 412.191406 C 768.339844 414.230469 768.441406 416.324219 768.441406 418.363281 C 768.441406 454.179688 739.433594 483.3125 702.578125 483.617188 C 675.5625 483.363281 652.316406 466.832031 642.785156 442.648438 C 659.757812 438.976562 675.613281 429.640625 687.285156 415.046875 C 691.773438 409.433594 690.855469 401.222656 685.246094 396.730469 C 679.640625 392.191406 671.433594 393.160156 666.894531 398.722656 C 658.179688 409.640625 645.742188 416.476562 631.925781 418.058594 C 618.058594 419.535156 604.398438 415.609375 593.539062 406.882812 C 587.882812 402.394531 579.675781 403.363281 575.1875 408.976562 C 570.703125 414.589844 571.621094 422.800781 577.226562 427.292969 C 588.648438 436.476562 601.902344 441.730469 615.511719 443.566406 C 625.300781 478.261719 654.507812 503.667969 690.039062 508.773438 C 690.039062 509.128906 690.140625 509.433594 690.140625 509.792969 C 690.140625 545.8125 660.878906 575.097656 624.890625 575.097656 C 623.363281 575.097656 622.136719 574.792969 620.710938 574.742188 C 612.910156 548.925781 594.253906 528.210938 569.9375 517.597656 C 579.828125 504.484375 585.742188 488.261719 585.742188 470.609375 C 585.742188 463.414062 579.878906 457.546875 572.691406 457.546875 C 565.503906 457.546875 559.640625 463.414062 559.640625 470.609375 C 559.640625 499.433594 536.242188 522.851562 507.441406 522.851562 C 500.253906 522.851562 494.390625 528.71875 494.390625 535.914062 C 494.390625 543.109375 500.253906 548.976562 507.441406 548.976562 C 522.175781 548.976562 535.9375 544.792969 547.714844 537.699219 C 572.996094 543.3125 592.878906 563.363281 597.667969 589.28125 C 597.667969 589.332031 597.722656 589.382812 597.722656 589.433594 C 598.433594 592.957031 598.792969 596.882812 598.792969 601.21875 C 598.792969 637.242188 569.53125 666.527344 533.542969 666.527344 C 529.363281 666.527344 525.128906 666.117188 520.949219 665.300781 C 520.949219 665.300781 520.949219 665.300781 520.898438 665.300781 C 512.539062 663.667969 504.636719 660.402344 497.449219 655.660156 C 491.484375 651.628906 483.382812 653.261719 479.40625 659.28125 C 475.378906 665.300781 477.007812 673.414062 483.023438 677.394531 C 490.519531 682.394531 498.621094 686.21875 507.1875 688.769531 C 507.289062 690.046875 507.441406 691.324219 507.441406 692.648438 C 507.441406 714.28125 489.90625 731.832031 468.292969 731.832031 C 459.726562 731.832031 451.46875 729.027344 444.382812 723.617188 C 434.699219 716.320312 429.140625 705.046875 429.140625 692.648438 L 429.140625 144.078125 C 429.140625 108.058594 458.402344 78.773438 494.390625 78.773438 C 503.875 78.773438 513.050781 80.8125 521.714844 84.792969 C 523.601562 85.660156 525.285156 86.679688 527.066406 87.699219 C 516.769531 100.863281 510.195312 116.527344 508.15625 133.058594 C 499.03125 135.199219 490.414062 139.488281 483.585938 146.324219 C 478.488281 151.425781 478.488281 159.691406 483.585938 164.792969 C 488.683594 169.894531 496.941406 169.894531 502.039062 164.792969 C 511.925781 154.945312 529.054688 154.945312 538.945312 164.792969 C 541.492188 167.34375 544.808594 168.621094 548.171875 168.621094 C 551.535156 168.621094 554.851562 167.34375 557.398438 164.792969 C 562.496094 159.691406 562.496094 151.425781 557.398438 146.324219 C 551.027344 139.894531 542.972656 135.8125 534.511719 133.566406 C 536.855469 119.128906 543.992188 105.710938 555.003906 95.710938 C 555.105469 95.609375 555.257812 95.609375 555.359375 95.507812 C 567.238281 84.742188 582.683594 78.773438 598.792969 78.773438 C 619.945312 78.773438 639.878906 89.078125 652.0625 106.425781 C 652.113281 106.425781 652.113281 106.425781 652.113281 106.425781 C 659.910156 117.496094 664.039062 130.507812 664.039062 144.078125 C 664.039062 151.273438 669.902344 157.140625 677.089844 157.140625 C 684.277344 157.140625 690.140625 151.273438 690.140625 144.078125 C 690.140625 130.964844 687.234375 118.3125 681.933594 106.578125 C 683.460938 106.273438 684.992188 105.863281 686.574219 105.660156 C 688.050781 105.457031 689.578125 105.253906 691.058594 105.148438 C 692.894531 104.996094 694.832031 104.894531 696.664062 104.894531 C 736.222656 104.894531 768.441406 137.140625 768.441406 176.730469 C 768.441406 185.148438 766.757812 193.722656 763.191406 203.722656 C 762.730469 204.996094 762.066406 206.273438 761.203125 207.957031 C 759.519531 211.527344 757.378906 214.945312 755.035156 218.261719 C 729.390625 206.375 698.703125 207.089844 673.675781 220.199219 C 663.429688 213.363281 651.144531 209.382812 637.941406 209.382812 C 630.753906 209.382812 624.890625 215.25 624.890625 222.445312 C 624.890625 229.640625 630.753906 235.507812 637.941406 235.507812 C 659.554688 235.507812 677.089844 253.058594 677.089844 274.691406 C 677.089844 281.882812 682.953125 287.75 690.140625 287.75 C 697.328125 287.75 703.191406 281.882812 703.191406 274.691406 C 703.191406 261.933594 699.367188 250.097656 692.996094 240.046875 C 711.601562 233.058594 733.265625 234.589844 750.394531 245.199219 C 750.546875 245.25 750.75 245.25 750.851562 245.355469 C 751.058594 245.507812 751.160156 245.710938 751.363281 245.863281 C 770.222656 257.90625 781.488281 278.464844 781.488281 300.8125 C 781.488281 322.292969 770.9375 342.394531 753.199219 354.589844 Z M 403.042969 722.445312 L 109.367188 425.148438 C 31.171875 346.015625 31.171875 217.34375 109.417969 138.210938 C 147.089844 99.894531 197.199219 78.773438 250.523438 78.773438 C 303.84375 78.773438 353.953125 99.894531 391.675781 138.210938 L 403.042969 149.792969 Z M 777.003906 232.597656 C 780.011719 228.3125 782.613281 223.824219 784.753906 219.28125 C 785.875 217.039062 786.945312 214.742188 787.761719 212.496094 C 792.347656 199.792969 794.539062 188.109375 794.539062 176.730469 C 794.539062 122.699219 750.648438 78.773438 696.664062 78.773438 C 694.320312 78.773438 691.824219 78.925781 689.324219 79.078125 C 687.03125 79.230469 684.890625 79.488281 682.953125 79.792969 C 677.550781 80.507812 672.246094 81.679688 667.046875 83.3125 C 649.820312 63.976562 624.992188 52.648438 598.792969 52.648438 C 579.980469 52.648438 561.832031 58.414062 546.640625 69.078125 C 542.257812 65.964844 537.570312 63.3125 532.574219 61.015625 C 520.542969 55.457031 507.695312 52.648438 494.390625 52.648438 C 453.40625 52.648438 418.691406 79.792969 407.121094 117.039062 C 364.859375 75.558594 309.5 52.648438 250.523438 52.648438 C 190.113281 52.648438 133.429688 76.527344 90.8125 119.894531 C 2.625 209.078125 2.625 354.28125 90.8125 443.464844 L 395.855469 752.34375 C 399.574219 756.015625 404.519531 757.953125 409.566406 757.953125 C 412.117188 757.953125 414.664062 757.445312 417.164062 756.425781 C 422.617188 754.128906 426.59375 749.535156 428.277344 744.078125 C 428.429688 744.230469 428.53125 744.332031 428.632812 744.433594 C 440.203125 753.261719 453.917969 757.953125 468.292969 757.953125 C 504.28125 757.953125 533.542969 728.667969 533.542969 692.648438 C 583.90625 692.648438 624.890625 651.628906 624.890625 601.21875 C 675.253906 601.21875 716.242188 560.199219 716.242188 509.792969 C 716.242188 509.484375 716.242188 509.179688 716.242188 508.875 C 760.4375 502.496094 794.539062 464.332031 794.539062 418.363281 C 794.539062 415.457031 794.386719 412.394531 794.082031 409.484375 C 793.164062 399.996094 790.769531 390.761719 786.84375 381.578125 C 785.515625 378.722656 782.714844 372.90625 779.09375 367.140625 C 797.140625 350.046875 807.589844 326.066406 807.589844 300.8125 C 807.589844 274.382812 796.375 249.792969 777.003906 232.597656 "/>
</g>
<path style=" stroke:none;fill-rule:nonzero;fill:rgb(1.568604%,2.349854%,2.349854%);fill-opacity:1;" d="M 559.640625 261.628906 C 509.277344 261.628906 468.292969 302.648438 468.292969 353.058594 C 468.292969 360.25 474.15625 366.117188 481.34375 366.117188 C 488.53125 366.117188 494.390625 360.25 494.390625 353.058594 C 494.390625 317.039062 523.652344 287.75 559.640625 287.75 C 566.828125 287.75 572.691406 281.882812 572.691406 274.691406 C 572.691406 267.496094 566.828125 261.628906 559.640625 261.628906 "/>
<path style=" stroke:none;fill-rule:nonzero;fill:rgb(1.568604%,2.349854%,2.349854%);fill-opacity:1;" d="M 250.523438 104.894531 C 204.234375 104.894531 160.703125 123.261719 127.925781 156.628906 C 96.878906 188.007812 78.78125 229.742188 76.949219 274.128906 C 76.640625 281.375 82.25 287.445312 89.4375 287.75 C 89.589844 287.75 89.792969 287.75 89.996094 287.75 C 96.929688 287.75 102.742188 282.242188 102.996094 275.25 C 104.578125 237.34375 120.023438 201.730469 146.480469 174.945312 C 174.363281 146.628906 211.269531 131.015625 250.523438 131.015625 C 257.710938 131.015625 263.570312 125.148438 263.570312 117.957031 C 263.570312 110.761719 257.710938 104.894531 250.523438 104.894531 "/>
<path style=" stroke:none;fill-rule:nonzero;fill:rgb(1.568604%,2.349854%,2.349854%);fill-opacity:1;" d="M 108.65625 323.363281 C 106.667969 316.425781 99.480469 312.394531 92.546875 314.382812 C 85.613281 316.324219 81.585938 323.515625 83.523438 330.507812 C 84.847656 335.25 86.429688 339.945312 88.164062 344.589844 C 90.097656 349.84375 95.09375 353.058594 100.347656 353.058594 C 101.875 353.058594 103.457031 352.800781 104.933594 352.242188 C 111.714844 349.691406 115.128906 342.140625 112.578125 335.40625 C 111.101562 331.425781 109.777344 327.445312 108.65625 323.363281 "/>
</g>
</svg>
