<?xml version="1.0" encoding="UTF-8"?>
<svg xmlns="http://www.w3.org/2000/svg" xmlns:xlink="http://www.w3.org/1999/xlink" width="810pt" height="809.999993pt" viewBox="0 0 810 809.999993" version="1.2">
<g id="surface1">
<path style=" stroke:none;fill-rule:evenodd;fill:rgb(0%,0%,0%);fill-opacity:1;" d="M 324.664062 257.613281 C 329.03125 148.089844 382.328125 66.835938 450.792969 50.355469 C 514.617188 35.019531 596.121094 72.511719 613.742188 159.441406 C 697.808594 131.226562 771.070312 183.125 789.671875 246.097656 C 809.640625 313.65625 765.941406 400.367188 673.367188 458.921875 C 647.5625 476.109375 614.394531 489.261719 578.28125 498.757812 C 563.386719 502.6875 548.113281 493.738281 544.1875 478.839844 C 540.257812 463.941406 549.148438 448.605469 564.097656 444.734375 C 593.882812 436.875 621.378906 426.507812 642.542969 412.261719 L 643.199219 411.828125 C 678.984375 389.289062 706.425781 362.058594 722.792969 333.683594 C 736.867188 309.289062 742.703125 284.351562 736.101562 261.921875 C 723.066406 217.886719 664.53125 187.542969 604.03125 225.6875 C 595.300781 231.253906 584.171875 231.472656 575.171875 226.234375 C 566.226562 221.105469 560.824219 211.335938 561.207031 200.96875 C 564.042969 129.480469 508.507812 93.957031 463.828125 104.707031 C 441.136719 110.164062 422.425781 127.679688 408.347656 152.074219 C 391.984375 180.449219 382.164062 217.886719 380.472656 260.121094 L 380.472656 260.886719 C 376.382812 321.242188 406.765625 400.585938 438.191406 463.613281 C 444.410156 463.175781 450.683594 462.742188 457.121094 462.195312 C 472.449219 460.886719 485.976562 472.289062 487.289062 487.679688 C 488.597656 503.066406 477.195312 516.546875 461.8125 517.855469 C 448.390625 519.003906 435.296875 519.820312 422.695312 520.3125 C 411.894531 520.804688 401.804688 514.964844 396.839844 505.414062 C 358.324219 431.855469 319.917969 331.773438 324.664062 257.613281 "/>
<path style=" stroke:none;fill-rule:evenodd;fill:rgb(0%,0%,0%);fill-opacity:1;" d="M 166.246094 470.597656 C 198.101562 416.738281 261.984375 407.625 304.097656 430.488281 C 350.140625 455.59375 374.199219 523.859375 356.25 603.53125 C 345.667969 656.082031 300.554688 718.785156 260.019531 762.820312 C 252.65625 770.789062 241.417969 773.789062 231.109375 770.570312 C 173.992188 752.726562 103.5625 720.964844 68.160156 680.75 C 12.789062 620.722656 -0.523438 549.617188 26.863281 504.8125 C 51.847656 463.941406 111.746094 439.929688 166.246094 470.597656 Z M 230.835938 711.636719 C 261.765625 676.21875 293.84375 631.308594 301.535156 592.234375 L 301.699219 591.472656 C 307.917969 563.914062 308.136719 537.992188 302.515625 516.875 C 297.988281 500.121094 290.023438 486.480469 277.421875 479.601562 C 252.820312 466.234375 215.234375 479.4375 205.578125 521.949219 C 203.285156 532.042969 195.59375 540.066406 185.554688 542.742188 C 175.574219 545.414062 164.878906 542.359375 157.84375 534.71875 C 128.277344 502.742188 89.105469 510.164062 74.488281 534.007812 C 67.011719 546.289062 66.902344 562.058594 71.375 578.8125 C 77.050781 599.984375 90.199219 622.25 109.398438 643.039062 L 109.890625 643.585938 C 136.078125 673.601562 186.320312 696.410156 230.835938 711.636719 "/>
</g>
</svg>
