<?xml version="1.0" encoding="UTF-8"?>
<svg xmlns="http://www.w3.org/2000/svg" xmlns:xlink="http://www.w3.org/1999/xlink" width="810pt" height="809.999993pt" viewBox="0 0 810 809.999993" version="1.2">
<g id="surface1">
<rect x="0" y="0" width="810" height="809.999993" style="fill:rgb(100%,100%,100%);fill-opacity:1;stroke:none;"/>
<rect x="0" y="0" width="810" height="809.999993" style="fill:rgb(100%,100%,100%);fill-opacity:1;stroke:none;"/>
<rect x="0" y="0" width="810" height="809.999993" style="fill:rgb(100%,100%,100%);fill-opacity:1;stroke:none;"/>
<path style=" stroke:none;fill-rule:nonzero;fill:rgb(0%,0%,0%);fill-opacity:1;" d="M 108 810 C 167.644531 810 216 761.644531 216 702 C 216 642.355469 167.644531 594 108 594 C 48.355469 594 0 642.355469 0 702 C 0 761.644531 48.355469 810 108 810 Z M 165.957031 651.957031 L 185.042969 671.042969 L 158.042969 698.042969 L 138.957031 678.957031 Z M 94.5 634.5 L 121.5 634.5 L 121.5 675 L 94.5 675 Z M 107.730469 702 C 125.710938 702 140.765625 713.300781 146.257812 729 L 162 729 L 162 756 L 135 756 C 127.546875 756 121.5 749.953125 121.5 742.5 C 121.5 734.925781 115.574219 729 108.269531 729 C 100.425781 729 94.5 734.925781 94.5 742.230469 C 94.5 749.683594 88.453125 756 81 756 L 54 756 L 54 729 L 69.78125 729 C 75.304688 713.230469 90.234375 702 107.730469 702 Z M 50.042969 651.957031 L 77.042969 678.957031 L 57.957031 698.042969 L 30.957031 671.042969 Z M 50.042969 651.957031 "/>
<path style=" stroke:none;fill-rule:nonzero;fill:rgb(0%,0%,0%);fill-opacity:1;" d="M 661.5 796.5 C 736.058594 796.5 796.5 736.058594 796.5 661.5 C 796.5 586.941406 736.058594 526.5 661.5 526.5 C 586.941406 526.5 526.5 586.941406 526.5 661.5 C 526.5 736.058594 586.941406 796.5 661.5 796.5 Z M 613.980469 586.925781 L 614.289062 586.628906 C 622.917969 578.460938 636.917969 578.460938 645.554688 586.628906 L 661.5 601.722656 L 677.445312 586.628906 C 686.070312 578.460938 700.070312 578.460938 708.710938 586.628906 L 709.019531 586.925781 C 717.644531 595.09375 717.644531 608.351562 709.019531 616.519531 L 693.078125 631.609375 L 661.5 661.5 L 629.921875 631.609375 L 613.980469 616.519531 C 605.339844 608.351562 605.339844 595.09375 613.980469 586.925781 Z M 594 715.5 L 626.15625 715.5 L 635.929688 695.964844 C 638.089844 691.660156 642.371094 688.824219 647.175781 688.527344 C 651.996094 688.175781 656.574219 690.511719 659.246094 694.507812 L 673.339844 715.648438 L 676.429688 709.453125 C 678.710938 704.890625 683.382812 702 688.5 702 L 742.5 702 L 742.5 729 L 696.84375 729 L 687.070312 748.535156 C 684.910156 752.839844 680.628906 755.675781 675.824219 755.972656 C 675.566406 756 675.285156 756 675 756 C 670.503906 756 666.277344 753.757812 663.769531 749.992188 L 649.675781 728.851562 L 646.582031 735.046875 C 644.289062 739.609375 639.617188 742.5 634.5 742.5 L 594 742.5 Z M 594 715.5 "/>
<path style=" stroke:none;fill-rule:nonzero;fill:rgb(0%,0%,0%);fill-opacity:1;" d="M 715.5 0 C 663.308594 0 621 42.308594 621 94.5 C 621 146.691406 663.308594 189 715.5 189 C 767.691406 189 810 146.691406 810 94.5 C 810 42.308594 767.691406 0 715.5 0 Z M 754.582031 100.535156 L 727.582031 154.535156 L 703.429688 142.453125 L 720.65625 108 L 702 108 C 697.316406 108 692.980469 105.570312 690.511719 101.601562 C 688.054688 97.617188 687.824219 92.652344 689.917969 88.464844 L 716.917969 34.464844 L 741.070312 46.546875 L 723.84375 81 L 742.5 81 C 747.183594 81 751.519531 83.429688 753.988281 87.398438 C 756.445312 91.382812 756.660156 96.347656 754.582031 100.535156 Z M 754.582031 100.535156 "/>
<path style=" stroke:none;fill-rule:nonzero;fill:rgb(0%,0%,0%);fill-opacity:1;" d="M 94.5 189 C 146.691406 189 189 146.691406 189 94.5 C 189 42.308594 146.691406 0 94.5 0 C 42.308594 0 0 42.308594 0 94.5 C 0 146.691406 42.308594 189 94.5 189 Z M 40.5 81 L 81 81 L 81 40.5 L 108 40.5 L 108 81 L 148.5 81 L 148.5 108 L 108 108 L 108 148.5 L 81 148.5 L 81 108 L 40.5 108 Z M 40.5 81 "/>
<path style=" stroke:none;fill-rule:nonzero;fill:rgb(0%,0%,0%);fill-opacity:1;" d="M 94.5 486 L 121.5 486 L 121.5 513 L 94.5 513 Z M 94.5 486 "/>
<path style=" stroke:none;fill-rule:nonzero;fill:rgb(0%,0%,0%);fill-opacity:1;" d="M 94.5 540 L 121.5 540 L 121.5 567 L 94.5 567 Z M 94.5 540 "/>
<path style=" stroke:none;fill-rule:nonzero;fill:rgb(0%,0%,0%);fill-opacity:1;" d="M 94.5 432 L 121.5 432 L 121.5 459 L 94.5 459 Z M 94.5 432 "/>
<path style=" stroke:none;fill-rule:nonzero;fill:rgb(0%,0%,0%);fill-opacity:1;" d="M 148.5 432 L 175.5 432 L 175.5 459 L 148.5 459 Z M 148.5 432 "/>
<path style=" stroke:none;fill-rule:nonzero;fill:rgb(0%,0%,0%);fill-opacity:1;" d="M 202.5 432 L 229.5 432 L 229.5 459 L 202.5 459 Z M 202.5 432 "/>
<path style=" stroke:none;fill-rule:nonzero;fill:rgb(0%,0%,0%);fill-opacity:1;" d="M 486 351 L 513 351 L 513 378 L 486 378 Z M 486 351 "/>
<path style=" stroke:none;fill-rule:nonzero;fill:rgb(0%,0%,0%);fill-opacity:1;" d="M 648 405 L 675 405 L 675 432 L 648 432 Z M 648 405 "/>
<path style=" stroke:none;fill-rule:nonzero;fill:rgb(0%,0%,0%);fill-opacity:1;" d="M 648 459 L 675 459 L 675 486 L 648 486 Z M 648 459 "/>
<path style=" stroke:none;fill-rule:nonzero;fill:rgb(0%,0%,0%);fill-opacity:1;" d="M 648 351 L 675 351 L 675 378 L 648 378 Z M 648 351 "/>
<path style=" stroke:none;fill-rule:nonzero;fill:rgb(0%,0%,0%);fill-opacity:1;" d="M 594 351 L 621 351 L 621 378 L 594 378 Z M 594 351 "/>
<path style=" stroke:none;fill-rule:nonzero;fill:rgb(0%,0%,0%);fill-opacity:1;" d="M 540 351 L 567 351 L 567 378 L 540 378 Z M 540 351 "/>
<path style=" stroke:none;fill-rule:nonzero;fill:rgb(0%,0%,0%);fill-opacity:1;" d="M 540 81 L 567 81 L 567 108 L 540 108 Z M 540 81 "/>
<path style=" stroke:none;fill-rule:nonzero;fill:rgb(0%,0%,0%);fill-opacity:1;" d="M 540 135 L 567 135 L 567 162 L 540 162 Z M 540 135 "/>
<path style=" stroke:none;fill-rule:nonzero;fill:rgb(0%,0%,0%);fill-opacity:1;" d="M 229.5 94.5 L 256.5 94.5 L 256.5 121.5 L 229.5 121.5 Z M 229.5 94.5 "/>
<path style=" stroke:none;fill-rule:nonzero;fill:rgb(0%,0%,0%);fill-opacity:1;" d="M 229.5 148.5 L 256.5 148.5 L 256.5 175.5 L 229.5 175.5 Z M 229.5 148.5 "/>
<path style=" stroke:none;fill-rule:nonzero;fill:rgb(0%,0%,0%);fill-opacity:1;" d="M 702 268.675781 L 702 268.136719 C 702 253.515625 690.039062 243 675.269531 243 L 605.582031 243 C 599.546875 266.21875 578.582031 283.5 553.5 283.5 C 528.417969 283.5 507.453125 266.21875 501.417969 243 L 421.335938 243 C 442.503906 228.621094 456.460938 202.703125 456.460938 174.769531 C 456.460938 130.4375 421.335938 94.5 378 94.5 C 334.664062 94.5 299.523438 130.4375 299.523438 174.769531 C 299.523438 202.703125 313.496094 228.621094 334.652344 243 L 80.730469 243 C 65.960938 243 54 253.515625 54 268.136719 L 54 268.675781 C 54 283.3125 65.960938 295.164062 80.730469 295.164062 L 283.5 321.921875 L 283.5 406.917969 C 287.847656 405.78125 292.316406 405 297 405 C 326.78125 405 351 429.21875 351 459 C 351 488.78125 326.78125 513 297 513 C 292.316406 513 287.847656 512.21875 283.5 511.082031 L 283.5 763.382812 C 283.5 781.675781 298.457031 796.5 316.914062 796.5 L 317.585938 796.5 C 336.042969 796.5 351 781.675781 351 763.382812 L 351 526.5 L 405 526.5 L 405 763.382812 C 405 781.675781 419.957031 796.5 438.414062 796.5 L 439.085938 796.5 C 457.542969 796.5 472.5 781.675781 472.5 763.382812 L 472.5 321.921875 L 675.269531 295.164062 C 690.039062 295.164062 702 283.3125 702 268.675781 Z M 391.5 405 C 361.71875 405 337.5 380.78125 337.5 351 C 337.5 321.21875 361.71875 297 391.5 297 C 421.28125 297 445.5 321.21875 445.5 351 C 445.5 380.78125 421.28125 405 391.5 405 Z M 391.5 405 "/>
<path style=" stroke:none;fill-rule:nonzero;fill:rgb(0%,0%,0%);fill-opacity:1;" d="M 391.5 310.5 C 369.128906 310.5 351 328.628906 351 351 C 351 373.371094 369.128906 391.5 391.5 391.5 C 413.871094 391.5 432 373.371094 432 351 C 432 328.628906 413.871094 310.5 391.5 310.5 Z M 391.5 364.5 C 384.046875 364.5 378 358.453125 378 351 C 378 343.546875 384.046875 337.5 391.5 337.5 C 398.953125 337.5 405 343.546875 405 351 C 405 358.453125 398.953125 364.5 391.5 364.5 Z M 391.5 364.5 "/>
<path style=" stroke:none;fill-rule:nonzero;fill:rgb(0%,0%,0%);fill-opacity:1;" d="M 553.5 189 C 531.128906 189 513 207.128906 513 229.5 C 513 251.871094 531.128906 270 553.5 270 C 575.871094 270 594 251.871094 594 229.5 C 594 207.128906 575.871094 189 553.5 189 Z M 553.5 243 C 546.046875 243 540 236.953125 540 229.5 C 540 222.046875 546.046875 216 553.5 216 C 560.953125 216 567 222.046875 567 229.5 C 567 236.953125 560.953125 243 553.5 243 Z M 553.5 243 "/>
<path style=" stroke:none;fill-rule:nonzero;fill:rgb(0%,0%,0%);fill-opacity:1;" d="M 297 418.5 C 274.628906 418.5 256.5 436.628906 256.5 459 C 256.5 481.371094 274.628906 499.5 297 499.5 C 319.371094 499.5 337.5 481.371094 337.5 459 C 337.5 436.628906 319.371094 418.5 297 418.5 Z M 297 472.5 C 289.546875 472.5 283.5 466.453125 283.5 459 C 283.5 451.546875 289.546875 445.5 297 445.5 C 304.453125 445.5 310.5 451.546875 310.5 459 C 310.5 466.453125 304.453125 472.5 297 472.5 Z M 297 472.5 "/>
</g>
</svg>
